<svg xmlns="http://www.w3.org/2000/svg" viewBox="0 0 198.43 198.42"><title>jm-logo-linkhub</title><rect width="198.43" height="198.42" style="fill:#d0122e"/><path d="M129.47,43.72a2.41,2.41,0,0,0,1.3-2.13,2.38,2.38,0,0,0-.1-.65,2.44,2.44,0,0,1,1.45-.49c1.58,0,2.9,1.7,2.91,3.79a17.53,17.53,0,0,1-1.18,5.39,37.94,37.94,0,0,0-4.38-5.91M79.7,105.09a20.57,20.57,0,0,0,2.45.46,2.18,2.18,0,0,0-.09,2c1.57,0,2.45-.15,2.56-.08,2.09,1.47.58,6.15,9.07,2.39,1.47.74,2.89,4.47,1,9.11a34.68,34.68,0,0,1-5.88,9.4c1,1.83,6.55,2.47,11.27.73,7.84-3.19,10.11-13.78,20.84-16.57-17.4-5.85-13.82-13.91-13.82-13.91,2.67,1.3,4.25-.93,4-2.34a2.16,2.16,0,0,0,2.28-2.16A1.91,1.91,0,0,0,111.68,92a1.35,1.35,0,0,0-.73.21c-.53-12,10.65-29.89,21.26-38.57-7.52,17.32-5,23.71-5,23.75a49.69,49.69,0,0,0,8,.27c-.13-.42-.83-2.59-.76-8.74.08-7.41,4.5-14.55,4.39-22-.11-6.53-3.06-8.64-5.83-8.64a4.76,4.76,0,0,0-3.47,1.22,2.49,2.49,0,0,0-1.29-.37,2.44,2.44,0,0,0-2.16,1.3,30.9,30.9,0,0,0-7.51-4.91c-7.26,9.89-11.81,12.76-20.09,18.77A113.66,113.66,0,0,0,78.18,73.85a2.2,2.2,0,0,0-1.9-1.18A2.43,2.43,0,0,0,74,75.23a2.63,2.63,0,0,0,1.19,2.26,1.62,1.62,0,0,0,0,3.16c-2.11,6.3.14,9.14,2.33,12.15,2.52,3.21,2,4.62,1.64,5.18s-1.88,2.65-2.21,3.09c-.2.27-.22.35-.16.48.93,1.38,3.42,1.84,3.42,1.84-.08.28-.36,1.07-.57,1.7" style="fill:#fff"/><path d="M94.23,144.15c.45,0,1.09.08,2.07.18.54,0,.57.32.64.55a3.53,3.53,0,0,1,.08.4.34.34,0,0,0,.33.32h.38a.33.33,0,0,0,.33-.33V142.9c0-.18-.14-.28-.32-.33a32.85,32.85,0,0,0-4.45-.22c-1.75.07-4.73.55-4.73,3.45h0a2.77,2.77,0,0,0,2,2.75c.64.19,1.25.3,1.83.47a16.52,16.52,0,0,1,1.68.52,1.13,1.13,0,0,1-.43,2.17,15.09,15.09,0,0,1-2.85-.11c-.53-.1-.57-.32-.64-.55a4.85,4.85,0,0,1-.11-.49.34.34,0,0,0-.33-.33h-.38a.34.34,0,0,0-.33.34v2.36c0,.19.14.28.32.34a34.83,34.83,0,0,0,4.46.22c1.74-.07,4.72-.56,4.72-3.46h0a2.79,2.79,0,0,0-2-2.75c-1.39-.43-2.2-.5-3.51-1a1.15,1.15,0,0,1-.7-1c0-.84.61-1.2,1.94-1.1" style="fill:#fff"/><path d="M55.56,141.41v9.53c0,1-.32,1-.6,1.11s-.83.17-1,.19a.35.35,0,0,0-.32.34V153a.33.33,0,0,0,.33.33h7.08a.33.33,0,0,0,.33-.33v-.38a.36.36,0,0,0-.33-.34c-.14,0-.81-.14-1-.19s-.55-.13-.59-1.11V139.39a.34.34,0,0,0-.34-.33H54a.33.33,0,0,0-.33.33v.38a.33.33,0,0,0,.32.33c.14,0,.82.15,1,.2s.57.12.6,1.11" style="fill:#fff"/><path d="M169.7,141.41v9.53c0,1-.32,1-.6,1.11s-.68.17-.82.19a.36.36,0,0,0-.33.34V153a.34.34,0,0,0,.34.33h6.84a.33.33,0,0,0,.33-.33v-.38a.35.35,0,0,0-.32-.34c-.14,0-.82-.14-1-.19s-.56-.13-.6-1.11V139.39a.33.33,0,0,0-.33-.33h-5a.34.34,0,0,0-.34.33v.38a.34.34,0,0,0,.33.33c.14,0,.67.15.82.2s.57.12.6,1.11" style="fill:#fff"/><path d="M69.06,139.47c0,.89-1.15,1.61-2.56,1.61s-2.56-.72-2.56-1.61,1.15-1.62,2.56-1.62,2.56.73,2.56,1.62" style="fill:#fff"/><path d="M64.83,144.88v6.06c0,1-.32,1-.6,1.11s-.83.17-1,.19a.35.35,0,0,0-.32.34V153a.33.33,0,0,0,.33.33h7.08a.33.33,0,0,0,.33-.33v-.38a.35.35,0,0,0-.32-.34c-.14,0-.82-.14-1-.19s-.56-.13-.6-1.11v-8.08a.34.34,0,0,0-.33-.34H63.27a.34.34,0,0,0-.33.34v.38a.34.34,0,0,0,.32.33c.14,0,.82.15,1,.2s.57.12.6,1.11" style="fill:#fff"/><path d="M148.58,139.47c0,.89-1.14,1.61-2.56,1.61s-2.55-.72-2.55-1.61,1.14-1.62,2.55-1.62,2.56.73,2.56,1.62" style="fill:#fff"/><path d="M144.35,144.88v6.06c0,1-.31,1-.59,1.11s-.83.17-1,.19a.36.36,0,0,0-.33.34V153a.34.34,0,0,0,.34.33h7.07a.34.34,0,0,0,.34-.33v-.38a.36.36,0,0,0-.33-.34c-.14,0-.82-.14-1-.19s-.56-.13-.6-1.11v-8.08a.34.34,0,0,0-.33-.34H142.8a.34.34,0,0,0-.34.34v.38a.35.35,0,0,0,.33.33c.14,0,.82.15,1,.2s.56.12.59,1.11" style="fill:#fff"/><path d="M116.49,152.76a.36.36,0,0,0,.32.2.35.35,0,0,0,.32-.2l4.67-9.7v7.88c0,1-.32,1-.59,1.11s-.83.17-1,.19a.36.36,0,0,0-.33.34V153a.33.33,0,0,0,.33.33h7.26a.33.33,0,0,0,.33-.33v-.38a.35.35,0,0,0-.32-.34c-.15,0-.82-.14-1-.19s-.55-.12-.59-1.11v-9.53c0-1,.32-1,.59-1.11s.83-.17,1-.19a.35.35,0,0,0,.32-.34v-.38a.33.33,0,0,0-.33-.33h-5.1a.46.46,0,0,0-.39.33L118.32,147l-3.7-7.62a.45.45,0,0,0-.39-.33h-5.41a.33.33,0,0,0-.33.33v.38a.35.35,0,0,0,.32.34c.15,0,.82.14,1,.19s.57.12.6,1.11v9.53c0,1-.32,1-.6,1.11s-.82.17-1,.19a.35.35,0,0,0-.32.34V153a.33.33,0,0,0,.33.33h4.55a.34.34,0,0,0,.34-.33v-.38a.36.36,0,0,0-.33-.34c-.14,0-.82-.14-1-.19s-.56-.13-.6-1.11v-7.88Z" style="fill:#fff"/><path d="M38.73,149.12c0-1,0-2.45,0-4v-.23h0c0-1-.32-1-.6-1.11a7.61,7.61,0,0,0-.75-.2.34.34,0,0,1-.32-.33v-.38a.34.34,0,0,1,.33-.34h5.14a.34.34,0,0,1,.33.34v6.7c0,1.54.69,2,1.81,2s1.8-.43,1.8-2v-4.69h0c0-1-.32-1-.6-1.11s-.83-.18-1-.2a.34.34,0,0,1-.32-.33v-.38a.34.34,0,0,1,.33-.34h5.36a.34.34,0,0,1,.34.34v8.08c0,1,.31,1,.59,1.11s.83.17,1,.19a.36.36,0,0,1,.33.34V153a.34.34,0,0,1-.34.33h-4.9a.34.34,0,0,1-.34-.33v-1a3.34,3.34,0,0,1-3.15,1.54c-5.11,0-5-2.9-5-4.42" style="fill:#fff"/><path d="M73.35,149.12c0-1,0-2.45,0-4v-.23h0c0-1-.31-1-.59-1.11s-.83-.18-1-.2a.35.35,0,0,1-.33-.33v-.38a.34.34,0,0,1,.34-.34h5.36a.34.34,0,0,1,.33.34v6.7c0,1.54.69,2,1.8,2s1.81-.43,1.81-2v-4.69h0c0-1-.32-1-.6-1.11s-.83-.18-1-.2a.34.34,0,0,1-.32-.33v-.38a.34.34,0,0,1,.33-.34h5.36a.34.34,0,0,1,.34.34v8.08c0,1,.31,1,.59,1.11s.83.17,1,.19a.36.36,0,0,1,.33.34V153a.34.34,0,0,1-.34.33H81.85a.33.33,0,0,1-.33-.33v-1a3.34,3.34,0,0,1-3.15,1.54c-5.11,0-5-2.9-5-4.42" style="fill:#fff"/><path d="M153.25,150.94v-6.06h0c0-1-.32-1-.6-1.11s-.83-.18-1-.2a.34.34,0,0,1-.32-.33v-.38a.34.34,0,0,1,.33-.34h4.91a.35.35,0,0,1,.34.34v1a3.32,3.32,0,0,1,3.15-1.54c5.1,0,5,2.89,5,4.41,0,1,0,2.46,0,4v.23c0,1,.32,1,.6,1.11s.83.17,1,.19a.35.35,0,0,1,.32.34V153a.33.33,0,0,1-.33.33h-5.36A.34.34,0,0,1,161,153v-6.71c0-1.53-.69-2-1.8-2s-1.8.44-1.8,2v4.7c0,1,.31,1,.59,1.11s.83.17,1,.19a.36.36,0,0,1,.33.34V153a.34.34,0,0,1-.34.33h-7.25a.33.33,0,0,1-.33-.33v-.38a.35.35,0,0,1,.32-.34c.14,0,.82-.14,1-.19s.56-.12.6-1.11Z" style="fill:#fff"/><path d="M137.07,146.72c0-1.11-.24-2.46-2.06-2.46s-2,1.15-2.14,2.46Zm2.26,3.68a1.34,1.34,0,0,0,0-.22.35.35,0,0,1,.34-.32h.38a.33.33,0,0,1,.33.33v2.36c0,.19-.14.28-.32.34a17,17,0,0,1-4.91.65c-4.08,0-6.05-1.75-6.05-5.42,0-2.84,1-5.8,6.15-5.8,5.73,0,5.46,4.11,5.43,5.72a.34.34,0,0,1-.33.34h-7.51c0,2,.74,3.45,3.34,3.45a7.2,7.2,0,0,0,2.62-.46.61.61,0,0,0,.38-.48c0-.09.08-.33.12-.49" style="fill:#fff"/><path d="M25.62,147.55c1.41,0,2.7.77,2.7,1.72a1.67,1.67,0,0,1-1.15,1.44.54.54,0,0,0-.32.46c0,.52.66,1,1.56,1a2.15,2.15,0,0,0,1.05-.26c1.09-.63,1.11-2.75,1.11-3.25v-7.25c0-1-.32-1-.6-1.11s-.83-.17-1-.19a.35.35,0,0,1-.32-.34v-.38a.33.33,0,0,1,.33-.33h7.25a.34.34,0,0,1,.34.33v.38a.36.36,0,0,1-.33.34c-.14,0-.82.14-1,.19s-.56.12-.59,1.11v7.26a4.92,4.92,0,0,1-5.23,5.25c-5.15,0-6.28-2.37-6.28-3.95a2.42,2.42,0,0,1,2.42-2.42" style="fill:#fff"/></svg>